<svg width="150" height="150" viewBox="0 0 150 150" fill="none" xmlns="http://www.w3.org/2000/svg">
  <path d="M 75.000,12.000 L 77.234,17.926 L 83.560,18.219 L 78.614,22.174 L 80.290,28.281 L 75.000,24.800 L 69.710,28.281 L 71.386,22.174 L 66.440,18.219 L 72.766,17.926 Z" fill="#1d1d1b" />
  <path d="M 102.000,19.235 L 104.234,25.160 L 110.560,25.453 L 105.614,29.409 L 107.290,35.516 L 102.000,32.035 L 96.710,35.516 L 98.386,29.409 L 93.440,25.453 L 99.766,25.160 Z" fill="#1d1d1b" />
  <path d="M 121.765,39.000 L 123.999,44.926 L 130.325,45.219 L 125.379,49.174 L 127.055,55.281 L 121.765,51.800 L 116.475,55.281 L 118.151,49.174 L 113.206,45.219 L 119.532,44.926 Z" fill="#1d1d1b" />
  <path d="M 129.000,66.000 L 131.234,71.926 L 137.560,72.219 L 132.614,76.174 L 134.290,82.281 L 129.000,78.800 L 123.710,82.281 L 125.386,76.174 L 120.440,72.219 L 126.766,71.926 Z" fill="#1d1d1b" />
  <path d="M 121.765,93.000 L 123.999,98.926 L 130.325,99.219 L 125.379,103.174 L 127.055,109.281 L 121.765,105.800 L 116.475,109.281 L 118.151,103.174 L 113.206,99.219 L 119.532,98.926 Z" fill="#1d1d1b" />
  <path d="M 102.000,112.765 L 104.234,118.691 L 110.560,118.984 L 105.614,122.940 L 107.290,129.047 L 102.000,125.565 L 96.710,129.047 L 98.386,122.940 L 93.440,118.984 L 99.766,118.691 Z" fill="#1d1d1b" />
  <path d="M 75.000,120.000 L 77.234,125.926 L 83.560,126.219 L 78.614,130.174 L 80.290,136.281 L 75.000,132.800 L 69.710,136.281 L 71.386,130.174 L 66.440,126.219 L 72.766,125.926 Z" fill="#1d1d1b" />
  <path d="M 48.000,112.765 L 50.234,118.691 L 56.560,118.984 L 51.614,122.940 L 53.290,129.047 L 48.000,125.565 L 42.710,129.047 L 44.386,122.940 L 39.440,118.984 L 45.766,118.691 Z" fill="#1d1d1b" />
  <path d="M 28.235,93.000 L 30.468,98.926 L 36.794,99.219 L 31.849,103.174 L 33.525,109.281 L 28.235,105.800 L 22.945,109.281 L 24.621,103.174 L 19.675,99.219 L 26.001,98.926 Z" fill="#1d1d1b" />
  <path d="M 21.000,66.000 L 23.234,71.926 L 29.560,72.219 L 24.614,76.174 L 26.290,82.281 L 21.000,78.800 L 15.710,82.281 L 17.386,76.174 L 12.440,72.219 L 18.766,71.926 Z" fill="#1d1d1b" />
  <path d="M 28.235,39.000 L 30.468,44.926 L 36.794,45.219 L 31.849,49.174 L 33.525,55.281 L 28.235,51.800 L 22.945,55.281 L 24.621,49.174 L 19.675,45.219 L 26.001,44.926 Z" fill="#1d1d1b" />
  <path d="M 48.000,19.235 L 50.234,25.160 L 56.560,25.453 L 51.614,29.409 L 53.290,35.516 L 48.000,32.035 L 42.710,35.516 L 44.386,29.409 L 39.440,25.453 L 45.766,25.160 Z" fill="#1d1d1b" />
</svg>